<?xml version="1.0" standalone="no"?><!DOCTYPE svg PUBLIC "-//W3C//DTD SVG 1.1//EN" "http://www.w3.org/Graphics/SVG/1.1/DTD/svg11.dtd"><svg t="1672410802767" class="icon" viewBox="0 0 1024 1024" version="1.1" xmlns="http://www.w3.org/2000/svg" p-id="7214" width="16" height="16" xmlns:xlink="http://www.w3.org/1999/xlink"><path d="M512 704c54.656-1.344 100.032-20.032 136-56S702.656 566.72 704 512c-1.344-54.656-20.032-100.032-56-136S566.72 321.344 512 320c-54.656 1.344-100.032 20.032-136 56S321.344 457.28 320 512c1.344 54.656 20.032 100.032 56 136S457.28 702.656 512 704z m0 64c-72.64-1.984-132.992-27.008-180.992-75.008S258.048 584.64 256 512c1.984-72.64 27.008-132.992 75.008-180.992S439.36 258.048 512 256c72.64 1.984 132.992 27.008 180.992 75.008S765.952 439.36 768 512c-1.984 72.64-27.008 132.992-75.008 180.992S584.64 765.952 512 768zM512 64c9.344 0 17.024 3.008 23.04 8.96 5.952 6.016 8.96 13.696 8.96 23.04v64a31.168 31.168 0 0 1-8.96 23.04A31.168 31.168 0 0 1 512 192a31.168 31.168 0 0 1-23.04-8.96 31.168 31.168 0 0 1-8.96-23.04v-64c0-9.344 3.008-17.024 8.96-23.04A31.168 31.168 0 0 1 512 64z m0 768c9.344 0 17.024 3.008 23.04 8.96 5.952 6.016 8.96 13.696 8.96 23.04v64a31.168 31.168 0 0 1-8.96 23.04A31.168 31.168 0 0 1 512 960a31.168 31.168 0 0 1-23.04-8.96 31.168 31.168 0 0 1-8.96-23.04v-64c0-9.344 3.008-17.024 8.96-23.04A31.168 31.168 0 0 1 512 832zM195.008 195.008a33.408 33.408 0 0 1 23.04-8.96c8.64 0 16 2.944 22.016 8.96l46.016 44.992c8 9.344 10.432 19.84 7.488 31.488a28.736 28.736 0 0 1-22.08 22.016 33.024 33.024 0 0 1-31.424-7.488l-45.056-46.016a29.952 29.952 0 0 1-8.96-22.016c0-8.704 3.008-16.384 8.96-23.04v0.064z m542.976 542.976a33.408 33.408 0 0 1 23.04-8.96c8.64 0 16.32 3.008 23.04 8.96l44.992 46.08c5.952 5.952 8.96 13.312 8.96 22.016a30.72 30.72 0 0 1-9.536 22.464 30.912 30.912 0 0 1-22.464 9.536 29.888 29.888 0 0 1-22.016-9.024l-46.016-44.992a33.408 33.408 0 0 1-8.96-23.04c0-8.64 2.944-16.32 8.96-22.976zM64 512c0-9.344 3.008-17.024 8.96-23.04a31.168 31.168 0 0 1 23.04-8.96h64c9.344 0 17.024 3.008 23.04 8.96 5.952 6.016 8.96 13.696 8.96 23.04a31.168 31.168 0 0 1-8.96 23.04 31.168 31.168 0 0 1-23.04 8.96h-64a31.168 31.168 0 0 1-23.04-8.96A31.168 31.168 0 0 1 64 512z m768 0c0-9.344 3.008-17.024 8.96-23.04a31.168 31.168 0 0 1 23.04-8.96h64c9.344 0 17.024 3.008 23.04 8.96 5.952 6.016 8.96 13.696 8.96 23.04a31.168 31.168 0 0 1-8.96 23.04 31.168 31.168 0 0 1-23.04 8.96h-64a31.168 31.168 0 0 1-23.04-8.96A31.168 31.168 0 0 1 832 512z m-636.992 316.992a33.408 33.408 0 0 1-8.96-23.04c0-8.64 2.944-16 8.96-22.016l44.992-46.016a33.408 33.408 0 0 1 23.04-8.96 30.72 30.72 0 0 1 22.464 9.536 30.72 30.72 0 0 1 9.472 22.464 33.408 33.408 0 0 1-8.96 23.04l-46.016 44.992a29.952 29.952 0 0 1-22.016 8.96 33.344 33.344 0 0 1-23.04-8.96h0.064z m542.976-542.976a33.408 33.408 0 0 1-8.96-23.04c0-8.64 3.008-16.32 8.96-22.976l46.08-44.992a29.952 29.952 0 0 1 22.016-8.96 30.72 30.72 0 0 1 22.464 9.472 30.912 30.912 0 0 1 9.536 22.464c0 8.704-3.008 16-9.024 22.08l-44.992 46.016a33.408 33.408 0 0 1-23.04 8.96 33.408 33.408 0 0 1-22.976-8.96v-0.064z" fill="#000000" p-id="7215"></path></svg>